<svg xmlns="http://www.w3.org/2000/svg" viewBox="0 0 56.23 39.01"><defs><style>.a{fill:#fff;}</style></defs><path class="a" d="M472.89,97.86c-15.5,0-28.11,8.27-28.11,18.44v1.07c0,11.3,11.82,19.5,28.11,19.5,8.25,0,15.33-2,20.5-5.7,4.91-3.54,7.62-8.44,7.62-13.8V116.3C501,106.13,488.39,97.86,472.89,97.86Zm26.74,18.43c0,9.4-12,17-26.74,17s-26.73-7.65-26.73-17,12-17.05,26.73-17.05S499.63,106.89,499.63,116.29Z" transform="translate(-444.77 -97.86)"/><path class="a" d="M499.93,115.55l0-.14a9.62,9.62,0,0,0-.15-1.17l0-.15h0l-.14,0h0l-.15,0a65.6,65.6,0,0,0-11.54,3.75c-2.63-2.29-8.73-7.59-10.38-8.83a7.1,7.1,0,0,0-2.21-1.28,3.48,3.48,0,0,0-1.11-.18,4.47,4.47,0,0,0-1.39.24,11.31,11.31,0,0,0-3.23,2l-.06,0a8.79,8.79,0,0,1-2.64,1.7,4.57,4.57,0,0,1-1,.1,2.59,2.59,0,0,1-1.76-.52.47.47,0,0,1,.09-.14l2.33-2.52c1.81-1.8,3.51-3.51,7.43-3.6h.19a13.83,13.83,0,0,1,5.15,1.22,16.55,16.55,0,0,0,7.19,1.73h0a18.45,18.45,0,0,0,7.76-1.84l.11,0,0,0,.16-.07h0l-.18-.15c-.29-.25-.6-.49-.95-.76l-.08-.05-.08,0a16.78,16.78,0,0,1-6.8,1.55h0a15,15,0,0,1-6.6-1.59,15.3,15.3,0,0,0-5.75-1.35h-.23a10,10,0,0,0-6.53,2.3,13.08,13.08,0,0,0-3.23.6,8.63,8.63,0,0,1-2.23.43l-.8,0h-.06a44.4,44.4,0,0,1-8.15-2.27l-.07,0-.07,0c-.31.23-.63.47-1,.74l-.2.16h0l.16.07.05,0,.11,0a39.65,39.65,0,0,0,8.82,2.53l.3,0c.28,0,.56,0,.85,0a9.84,9.84,0,0,0,2.61-.48c.37-.11.73-.21,1.11-.29a.47.47,0,0,0-.1.1l-2.37,2.56a1.34,1.34,0,0,0-.36,1.48,1.9,1.9,0,0,0,.68.75,5.15,5.15,0,0,0,2.6.67h0a4.88,4.88,0,0,0,1-.11,9.31,9.31,0,0,0,3.2-2,10.27,10.27,0,0,1,3-1.82,3.39,3.39,0,0,1,.82-.12l.2,0a4.44,4.44,0,0,1,2.27,1.08c1.95,1.46,10.55,9,10.64,9.07a1.55,1.55,0,0,1,.46,1.14,1.24,1.24,0,0,1-.62,1,1.91,1.91,0,0,1-1,.33,1.82,1.82,0,0,1-.65-.13,1.34,1.34,0,0,1-.25-.12,2.5,2.5,0,0,0-.22-.21c-.73-.66-2.94-2.67-3.85-3.44a1,1,0,0,0-.6-.31h0a.44.44,0,0,0-.34.17c-.2.24-.09.6.26.89l3.45,3.47a1.55,1.55,0,0,1,.43.83,1.45,1.45,0,0,1-.75,1.3,2.09,2.09,0,0,1-1.14.38,1.62,1.62,0,0,1-.88-.26l-.52-.51c-.89-.88-1.82-1.79-2.5-2.36a1,1,0,0,0-.61-.3.42.42,0,0,0-.33.14c-.1.1-.22.33.05.69a1.47,1.47,0,0,0,.18.2l2.52,2.82a.82.82,0,0,1,.05,1l-.08.1a1.42,1.42,0,0,1-.22.21,1.8,1.8,0,0,1-1.13.36,1.66,1.66,0,0,1-.32,0,.65.65,0,0,1-.41-.16l0,0s-1.35-1.4-2.47-2.33a1,1,0,0,0-.58-.29.45.45,0,0,0-.34.15c-.21.22-.12.56.24.89l2.07,2.29s0,0,0,0a1.46,1.46,0,0,1-1,.39,4,4,0,0,1-2.16-.52,3.35,3.35,0,0,0-3.05-4.64,2.92,2.92,0,0,0-1.72-3,3.23,3.23,0,0,0-2.31-.17,2.85,2.85,0,0,0-1.59-1.29,3.33,3.33,0,0,0-3,.32,2.81,2.81,0,0,0-2.13-1,2.86,2.86,0,0,0-1.92.75c-.79-.58-3.5-2.2-10.36-3.76-.32-.07-1-.27-1.45-.4l-.15,0h0l-.13,0h0l0,.17a11.82,11.82,0,0,0-.18,1.17v.13l.13,0,1.56.37c6.79,1.5,9.29,3.06,9.89,3.5a2.8,2.8,0,0,0-.18,1,2.85,2.85,0,0,0,.84,2,2.92,2.92,0,0,0,2,.85c.13,0,.26,0,.38,0a3.31,3.31,0,0,0,2.11,2.33,2.85,2.85,0,0,0,1,.2,2.44,2.44,0,0,0,.53,0,3,3,0,0,0,1.71,1.54,2.77,2.77,0,0,0,1.87.12,3.33,3.33,0,0,0,3,1.94h0a3.32,3.32,0,0,0,2.31-.93,6,6,0,0,0,2.69.77l.42,0a2.6,2.6,0,0,0,1.94-1l.07-.1a2.89,2.89,0,0,0,.79.11,3,3,0,0,0,1.84-.65,2.69,2.69,0,0,0,1.08-1.47,3.36,3.36,0,0,0,2.34-.56,2.78,2.78,0,0,0,1.36-2.26,3.16,3.16,0,0,0,2.2-.51,2.58,2.58,0,0,0,1.24-2,2.62,2.62,0,0,0-.3-1.48,69.43,69.43,0,0,1,11-3.43Zm-34.74,8.31-.12-.11h-.14a.55.55,0,0,0-.3.12,1.51,1.51,0,0,1-1.51.24,2.16,2.16,0,0,1-1.34-2.5.37.37,0,0,0-.12-.35l-.22-.18-.21.2a1.53,1.53,0,0,1-1.07.43,1.55,1.55,0,0,1-1.56-1.55,1.51,1.51,0,0,1,.46-1.1,1.53,1.53,0,0,1,1.1-.46h0a1.55,1.55,0,0,1,1.53,1.36l.11.87.48-.74a2.35,2.35,0,0,1,1.86-1h0a2.49,2.49,0,0,1,.7.11,1.58,1.58,0,0,1,1.1,1.47.36.36,0,0,0,.36.37.4.4,0,0,0,.3-.15,1.59,1.59,0,0,1,1.15-.48,2.24,2.24,0,0,1,.88.2c1.48.63.8,2.54.79,2.56-.12.29-.21.58.06.76l.06,0,.12,0a1.53,1.53,0,0,0,.36-.09,2.36,2.36,0,0,1,.8-.18h0a2,2,0,1,1,0,4.08,2,2,0,0,1-2-2c0-.44-.25-.51-.39-.51a.57.57,0,0,0-.37.18,1.41,1.41,0,0,1-1,.45,1.73,1.73,0,0,1-.66-.15c-1.14-.47-1.16-1.23-1.11-1.54A.48.48,0,0,0,465.19,123.86Z" transform="translate(-444.77 -97.86)"/></svg>