<svg xmlns="http://www.w3.org/2000/svg" viewBox="0 0 330.5 165.25"><defs><style>.a{fill:#fff;}</style></defs><path class="a" d="M262.59-588A21.85,21.85,0,0,0,251-602.64a37.61,37.61,0,0,0-16.14-3.63c-5.73-.13-11.47-.08-17.21-.06-3.58,0-7.16,0-10.73.26-6.6.5-10.77,4.35-12,10.72a5.88,5.88,0,0,1-.48,1.17v79.66c.83,1.85,2.13,3.16,4.25,3.23a27.76,27.76,0,0,0,5.24-.22,8.08,8.08,0,0,0,2.44-1.4,11.91,11.91,0,0,0,1-3.22c.09-9.14.06-18.28.07-27.42,0-1.68.07-1.75,1.74-1.75,7.29,0,14.58,0,21.87,0a54.09,54.09,0,0,0,15.23-1.88c7.85-2.36,13.4-7.22,15.92-15.08A45.32,45.32,0,0,0,262.59-588ZM251-572.62a30.84,30.84,0,0,1-1.15,6.32c-1.26,4.16-4.35,6.48-8.4,7.66a39,39,0,0,1-10.64,1.13c-7.16.06-14.32,0-21.48,0-1.9,0-1.91,0-1.92-2v-14.22q0-6.72,0-13.45c0-.3,0-.6,0-.9.08-4.37,1.63-5.92,6-5.92h20.18a25.12,25.12,0,0,1,9.63,1.62,11.2,11.2,0,0,1,6.45,6.83A29.69,29.69,0,0,1,251-572.62Z" transform="translate(-194.4 647.72)"/><path class="a" d="M390.7-583.17a23.69,23.69,0,0,0-4.38-.13c-2.67.09-4.69,1.25-5.39,4-1.58,6.17-3.09,12.36-4.6,18.54q-2.54,10.37-5,20.72c-.87,3.69-1.69,7.38-2.54,11.08h0l-1.56,4.63a5.31,5.31,0,0,1,.58-.5,5.31,5.31,0,0,0-.58.5A5.78,5.78,0,0,1,362-521.2a9.8,9.8,0,0,1-5.8-1.34h0A46.55,46.55,0,0,1,354-527c-.86-2.42-1.49-4.93-2.22-7.4l-.06,0-.12-.11.12.11.06,0c-1.63-6-3.24-12-4.88-18.08q-3.32-12.27-6.68-24.55c-1.49-5.4-2.82-6.35-8.41-6.27-4.42.06-5.66,1.71-4.5,5.94,1.88,6.85,3.74,13.7,5.63,20.54,1.24,4.48,2.51,9,3.77,13.42.79,3,1.54,6,2.39,9,1.24,4.34,2.55,8.66,3.83,13,3.26,10.1,10.55,12.81,20.54,10.8a44,44,0,0,1-3.5,8.84c.4-.62.84-1.21,1.22-1.83-.38.62-.82,1.21-1.22,1.83-1.47,2.14-3.08,4.21-5.46,5.32a61.51,61.51,0,0,1-6.16,2.17c-1.2.13-2.4.2-3.59.38-2.31.37-3.27,1.48-3.07,3.8a19.27,19.27,0,0,0,.88,4.16,4.55,4.55,0,0,0,5,3.53c1.35-.06,2.68-.48,4-.67a26.42,26.42,0,0,0,10.66-3.74,20.43,20.43,0,0,0,7.33-7.47c2.16-2.48,3.28-5.49,4.43-8.48,1.28-4.33,2.61-8.64,3.83-13,.71-2.56,1.24-5.17,1.85-7.76h0c1.11-4.32,2.25-8.64,3.34-13,.65-2.57,1.22-5.15,1.83-7.73h0c.41-1.41.85-2.8,1.21-4.21q2.78-11,5.52-22c.7-2.84,1.39-5.69,1.94-8.57C394-581.42,393-582.82,390.7-583.17Zm-22.05,57.84a3.87,3.87,0,0,0-.64.33A3.87,3.87,0,0,1,368.65-525.33Z" transform="translate(-194.4 647.72)"/><path class="a" d="M504.13-608.82c0-2.74-1.34-4-4.07-4H482.2c-4.34,0-5.08.69-5.18,5.05,0,1.14-.49,1.48-1.57,1.49-1.68,0-3.36.09-5,.24-4.26.36-6.51,2.45-7.06,6.54a24.88,24.88,0,0,0-.23,3.34c0,5.74,0,11.47,0,17.2,0,11.34,0,22.68-.05,34a10.43,10.43,0,0,1-7.84,10.35,33.28,33.28,0,0,1-14.35.78c-7.61-1.07-11.2-5.1-11.24-12.76-.05-10,0-19.92,0-29.87,0-7.07,0-14.14,0-21.21-.05-5.21-2.41-8.12-7.06-8.35-4.3-.21-8.62-.19-12.92,0s-6.44,2.35-7,6.66a22.16,22.16,0,0,0-.12,2.71c0,16.16-.05,32.33,0,48.49a61.49,61.49,0,0,0,.81,10.15,57.14,57.14,0,0,0,2.5,7.81c2.55,6.41,7.22,11,13.09,14.25a46.51,46.51,0,0,0,18.7,5.48c8.94.86,17.81.67,26.55-1.64A37.76,37.76,0,0,0,479.54-520a29.65,29.65,0,0,0,7.87-11.34,8.84,8.84,0,0,0,.54-1,41.54,41.54,0,0,0,2.45-14.59c.09-12.2,0-24.39,0-36.59,0-1.92,0-1.92,2-1.92,2.46,0,4.92-.12,7.37,0,2.78.16,4.41-1.47,4.39-4.3C504.11-596.06,504.17-602.44,504.13-608.82Z" transform="translate(-194.4 647.72)"/><path class="a" d="M524.9-630a3.32,3.32,0,0,0-3.46-3.47q-7,0-14,0c-2,0-3.2,1.06-3.22,3.07q-.09,7.15,0,14.33a2.94,2.94,0,0,0,3.16,3.19q7.09.1,14.21,0a3.45,3.45,0,0,0,3.26-3.44v-6.84C524.9-625.47,524.91-627.75,524.9-630Z" transform="translate(-194.4 647.72)"/><path class="a" d="M501.76-647.72l-10,0a2.6,2.6,0,0,0-1.54,2.48q-.06,4.71,0,9.42c0,.88.21,1.74,1.25,2a1.88,1.88,0,0,0,.48.18c3.49,0,7,.06,10.47,0a1.71,1.71,0,0,0,1.69-1.82c.07-3.4.09-6.8,0-10.2A2.21,2.21,0,0,0,501.76-647.72Z" transform="translate(-194.4 647.72)"/><path class="a" d="M322.51-561.1a39.35,39.35,0,0,0-.54-6.68A18.28,18.28,0,0,0,314.28-580a28.15,28.15,0,0,0-11.09-4.38,67.25,67.25,0,0,0-20.47-.57,86.73,86.73,0,0,0-8.76,1.53,3.86,3.86,0,0,0-3.09,3.71,24.7,24.7,0,0,0-.05,3.75c.2,2.84,1.82,4.11,4.61,3.58a85.17,85.17,0,0,1,18.5-1.67,28.59,28.59,0,0,1,9.27,1.51c3.66,1.35,6.06,3.85,6.43,7.82.27,2.91.11,5.85.28,8.77.07,1.28-.32,1.66-1.57,1.65-4.78,0-9.57-.08-14.35,0-4.61.09-9.22.24-13.71,1.51-1.54.51-3.1,1-4.61,1.56a16.81,16.81,0,0,0-7.57,5.14c-4.83,6.29-5.26,13.38-3.33,20.79a38.59,38.59,0,0,0,2.89,6c3.84,5.42,9.56,7.77,15.87,8.65a79.34,79.34,0,0,0,11.34.57c5.95,0,11.79-.93,17.17-3.67a16.74,16.74,0,0,0,9.18-11.07A3.71,3.71,0,0,0,321-526a3.71,3.71,0,0,1,.2,1.13c.28-1.21.55-2.41.82-3.61h0a37.91,37.91,0,0,0,.47-4.21Q322.59-546.88,322.51-561.1Zm-23.89,39.52a43.53,43.53,0,0,1-11.46.17c-3.92-.5-7.36-1.8-9.62-5.29-1.46-.22-2.93-.52-4.4-.67,1.47.15,2.94.45,4.4.67a15.3,15.3,0,0,1-.42-10.86,7.08,7.08,0,0,1,4.53-4.49,58.07,58.07,0,0,1,6.18-1.7h0c1.5-.08,3-.22,4.51-.23,5.26,0,10.53,0,15.79,0,1.72,0,1.91.19,1.89,2,0,3.74-.14,7.49-.21,11.24,0-.08.05-.15.07-.22s-.05.14-.07.22l-1.53,4.38h0C305.9-523.12,302.35-522.08,298.62-521.58Zm22-4.88a1.25,1.25,0,0,0-.28-.15,1.25,1.25,0,0,1,.28.15.83.83,0,0,1,.22.2A.83.83,0,0,0,320.65-526.46Z" transform="translate(-194.4 647.72)"/></svg>